<?xml version="1.0" encoding="UTF-8"?>
<svg version="1.1" xmlns="http://www.w3.org/2000/svg" width="1353" height="320">
<path d="M0 0 C46.2 0 92.4 0 140 0 C138.53195771 4.40412687 137.32284118 7.47882978 135.05078125 11.359375 C134.4578125 12.37902344 133.86484375 13.39867187 133.25390625 14.44921875 C132.61324219 15.53847656 131.97257813 16.62773437 131.3125 17.75 C130.63743361 18.90720972 129.96296538 20.06476857 129.2890625 21.22265625 C127.88984195 23.62570582 126.48807065 26.0272392 125.08447266 28.42773438 C121.86550635 33.93786812 118.68480155 39.47007617 115.5 45 C114.25017876 47.16676979 113.0001782 49.33343615 111.75 51.5 C111.13125 52.5725 110.5125 53.645 109.875 54.75 C93 84 76.125 113.25 59.25 142.5 C58.63116943 143.57266113 58.01233887 144.64532227 57.37475586 145.75048828 C56.12564482 147.91557071 54.87645871 150.08060982 53.62719727 152.24560547 C50.48797691 157.68615706 47.35009437 163.12747216 44.21484375 168.5703125 C38.19252671 179.02206199 32.15330663 189.46299548 26.0625 199.875 C20.98724877 208.55262241 15.97741233 217.26605568 11 226 C5.4599827 235.72115617 -0.13374809 245.40894658 -5.78344727 255.06689453 C-10.02617285 262.32211746 -14.23995164 269.59354967 -18.4375 276.875 C-19.05077148 277.93871826 -19.66404297 279.00243652 -20.29589844 280.09838867 C-23.24915457 285.2225891 -26.20039544 290.34794719 -29.1504364 295.47399902 C-30.53659738 297.88217475 -31.92352749 300.28990699 -33.31057739 302.6975708 C-34.29239298 304.40258234 -35.27303984 306.1082667 -36.25366211 307.81396484 C-37.14323608 309.35818115 -37.14323608 309.35818115 -38.05078125 310.93359375 C-38.57325439 311.84165771 -39.09572754 312.74972168 -39.6340332 313.68530273 C-40.69977966 315.49126201 -41.83680752 317.25521129 -43 319 C-46.8339058 317.7220314 -47.10636815 316.52549332 -49.00390625 313.03125 C-49.57423584 311.99427979 -50.14456543 310.95730957 -50.73217773 309.88891602 C-51.33618408 308.77057373 -51.94019043 307.65223145 -52.5625 306.5 C-53.83454357 304.18543129 -55.10798382 301.87162963 -56.3828125 299.55859375 C-57.00446289 298.42663574 -57.62611328 297.29467773 -58.26660156 296.12841797 C-60.4250432 292.23288683 -62.6586966 288.38850119 -64.9375 284.5625 C-69.07428763 277.59296829 -73.14116146 270.58493863 -77.1875 263.5625 C-77.82478027 262.45672607 -78.46206055 261.35095215 -79.11865234 260.21166992 C-81.0796138 256.8080747 -83.03988215 253.40408111 -85 250 C-86.89622715 246.70749532 -88.79277836 243.41518187 -90.69091797 240.1237793 C-91.93214506 237.96919947 -93.17078125 235.81312485 -94.40673828 233.65551758 C-97.57480847 228.13804011 -100.79846444 222.66581869 -104.125 217.2421875 C-104.78556396 216.15180176 -105.44612793 215.06141602 -106.12670898 213.93798828 C-107.3879516 211.86089078 -108.6653976 209.79351928 -109.96118164 207.73779297 C-114.10013704 200.87779705 -114.10013704 200.87779705 -113.6328125 196.78125 C-112.82457031 195.40453125 -112.82457031 195.40453125 -112 194 C-111.38769531 192.88109375 -110.77539062 191.7621875 -110.14453125 190.609375 C-109.37235196 189.31981015 -108.59460079 188.03357186 -107.8125 186.75 C-106.90501595 185.23381085 -105.99885194 183.71683112 -105.09375 182.19921875 C-104.59875 181.37083496 -104.10375 180.54245117 -103.59375 179.68896484 C-100.6209771 174.67332135 -97.72060528 169.61581773 -94.8125 164.5625 C-94.17546143 163.45680664 -93.53842285 162.35111328 -92.88208008 161.21191406 C-91.57299343 158.93975918 -90.26415738 156.66745991 -88.95556641 154.39501953 C-85.80667946 148.9283002 -82.65316736 143.46425113 -79.5 138 C-78.2499765 135.83334689 -76.99997653 133.66668021 -75.75 131.5 C-38.25 66.5 -38.25 66.5 -36.37426758 63.2487793 C-35.1266526 61.08621417 -33.87909384 58.92361661 -32.6315918 56.76098633 C-29.47056551 51.28129629 -26.30850691 45.80220642 -23.14453125 40.32421875 C-22.18160156 38.65649414 -22.18160156 38.65649414 -21.19921875 36.95507812 C-20.00819246 34.89235869 -18.81683131 32.82983253 -17.625 30.76757812 C-11.71544723 20.53114592 -5.86448435 10.26284761 0 0 Z " fill="#1767C0" transform="translate(228,0)"/>
<path d="M0 0 C45.87 0 91.74 0 139 0 C137.53195771 4.40412687 136.32284118 7.47882978 134.05078125 11.359375 C133.4578125 12.37902344 132.86484375 13.39867187 132.25390625 14.44921875 C131.61324219 15.53847656 130.97257813 16.62773437 130.3125 17.75 C129.63743361 18.90720972 128.96296538 20.06476857 128.2890625 21.22265625 C126.88984195 23.62570582 125.48807065 26.0272392 124.08447266 28.42773438 C120.86550635 33.93786812 117.68480155 39.47007617 114.5 45 C113.25017876 47.16676979 112.0001782 49.33343615 110.75 51.5 C110.13125 52.5725 109.5125 53.645 108.875 54.75 C83.5625 98.625 83.5625 98.625 58.25 142.5 C57.63116943 143.57266113 57.01233887 144.64532227 56.37475586 145.75048828 C55.12564482 147.91557071 53.87645871 150.08060982 52.62719727 152.24560547 C49.48797691 157.68615706 46.35009437 163.12747216 43.21484375 168.5703125 C37.19252671 179.02206199 31.15330663 189.46299548 25.0625 199.875 C19.98724877 208.55262241 14.97741233 217.26605568 10 226 C4.4599827 235.72115617 -1.13374809 245.40894658 -6.78344727 255.06689453 C-11.02617376 262.32211902 -15.23971554 269.59368471 -19.4375 276.875 C-20.35740723 278.46948975 -20.35740723 278.46948975 -21.29589844 280.09619141 C-24.25437854 285.22674956 -27.20794782 290.36004284 -30.1504364 295.49978638 C-31.53550621 297.91830268 -32.92291786 300.33547132 -34.31057739 302.75250244 C-35.29393502 304.46762 -36.27383257 306.18471991 -37.25366211 307.90185547 C-38.14323608 309.45090576 -38.14323608 309.45090576 -39.05078125 311.03125 C-39.57325439 311.94455078 -40.09572754 312.85785156 -40.6340332 313.79882812 C-42 316 -42 316 -44 318 C-43.29945788 313.91150368 -42.08671307 310.16777938 -40.69921875 306.26171875 C-40.21723682 304.89113911 -39.73581893 303.52036103 -39.25488281 302.14941406 C-38.99984985 301.42467896 -38.74481689 300.69994385 -38.48205566 299.95324707 C-20.59127782 248.93608197 -6.6567424 196.38755166 2 143 C2.14775879 142.09926758 2.29551758 141.19853516 2.44775391 140.27050781 C3.42811003 134.19483424 4.24862499 128.1078852 5 122 C5.13680176 120.93168945 5.27360352 119.86337891 5.41455078 118.76269531 C7.48375438 102.16707593 8.29126178 85.77735212 8.3125 69.0625 C8.31599457 68.17930084 8.31948914 67.29610168 8.3230896 66.38613892 C8.34797033 55.08726118 7.70922698 44.17571487 6 33 C5.86907959 32.11304443 5.73815918 31.22608887 5.60327148 30.31225586 C5.27771545 28.18306026 4.92706653 26.06031881 4.5625 23.9375 C4.45357422 23.27685547 4.34464844 22.61621094 4.23242188 21.93554688 C2.99244783 14.5847615 1.46370072 7.31850359 0 0 Z " fill="#1596F5" transform="translate(229,0)"/>
<path d="M0 0 C64.02 0 128.04 0 194 0 C192.51508007 3.71229983 191.03192692 6.90600693 189.09375 10.359375 C188.52019775 11.38345459 187.94664551 12.40753418 187.35571289 13.46264648 C186.74332764 14.54747314 186.13094238 15.6322998 185.5 16.75 C184.86634521 17.87672119 184.23269043 19.00344238 183.57983398 20.16430664 C179.74999436 26.95517743 175.86664399 33.70984746 171.8894043 40.4152832 C168.14695337 46.72724525 164.47596521 53.07941601 160.8125 59.4375 C159.85549194 61.09833618 159.85549194 61.09833618 158.87915039 62.79272461 C157.57110523 65.06337068 156.26324552 67.33412358 154.95556641 69.60498047 C151.80667946 75.0716998 148.65316736 80.53574887 145.5 86 C144.2499765 88.16665311 142.99997653 90.33331979 141.75 92.5 C139.25 96.83333333 136.75 101.16666667 134.25 105.5 C133.63084717 106.5732251 133.01169434 107.6464502 132.3737793 108.75219727 C131.1279423 110.91159395 129.88201182 113.07093669 128.63598633 115.23022461 C125.44651047 120.75767597 122.25883115 126.28615121 119.07421875 131.81640625 C112.10677118 143.91186046 105.11025277 155.98785531 98 168 C94.05790462 166.68596821 93.69942468 165.21143347 91.69921875 161.62109375 C91.05911865 160.48462402 90.41901855 159.3481543 89.75952148 158.17724609 C89.06884766 156.93066406 88.37817383 155.68408203 87.6875 154.4375 C86.60419691 152.50700191 85.51756433 150.57840113 84.43092346 148.64978027 C83.69240194 147.33829734 82.95497423 146.02619789 82.21861267 144.71350098 C78.85919573 138.72748668 75.41116438 132.79540613 71.9375 126.875 C65.20627717 115.37224112 58.54343499 103.83075308 51.89111328 92.28222656 C48.76319852 86.85340058 45.63141552 81.42680719 42.5 76 C41.24998121 73.83334417 39.99998122 71.6666775 38.75 69.5 C38.13125 68.4275 37.5125 67.355 36.875 66.25 C35 63 33.125 59.75 31.25 56.5 C30.3206665 54.88919556 30.3206665 54.88919556 29.37255859 53.24584961 C28.13060256 51.09307184 26.8887396 48.94024037 25.64697266 46.78735352 C22.74353087 41.75383085 19.839215 36.72081952 16.93145752 31.68978882 C15.90654597 29.91637392 14.88193877 28.14278354 13.85742188 26.36914062 C12.57547262 24.15004227 11.29295893 21.93126984 10.00976562 19.71289062 C8.33425507 16.81175798 6.66516577 13.90708043 5 11 C4.49243164 10.11844238 3.98486328 9.23688477 3.46191406 8.32861328 C2.77307129 7.1160083 2.77307129 7.1160083 2.0703125 5.87890625 C1.66828613 5.17451416 1.26625977 4.47012207 0.85205078 3.74438477 C0 2 0 2 0 0 Z " fill="#ADDCFF" transform="translate(0,0)"/>
<path d="M0 0 C38.61 0 77.22 0 117 0 C117 8.58 117 17.16 117 26 C89.28 26 61.56 26 33 26 C33 31.94 33 37.88 33 44 C59.4 44 85.8 44 113 44 C113 52.25 113 60.5 113 69 C86.6 69 60.2 69 33 69 C33 76.26 33 83.52 33 91 C61.05 91 89.1 91 118 91 C118 99.25 118 107.5 118 116 C79.06 116 40.12 116 0 116 C0 77.72 0 39.44 0 0 Z " fill="#000000" transform="translate(740,92)"/>
<path d="M0 0 C10.56 0 21.12 0 32 0 C32.02578125 5.23746094 32.0515625 10.47492188 32.078125 15.87109375 C32.10331163 19.20252191 32.12965838 22.53386092 32.16015625 25.86523438 C32.20838248 31.14510355 32.25246782 36.42476617 32.27099609 41.70483398 C32.28621553 45.96502991 32.32075375 50.22468298 32.36830902 54.48463631 C32.38306859 56.10435309 32.39103788 57.72414739 32.39188385 59.3439312 C32.40607458 73.8129534 32.40607458 73.8129534 39.75 85.875 C51.7867603 93.74518943 68.15336517 94.0891949 82 92 C89.10111398 90.40637791 96.57452149 88.1636191 101 82 C105.02832645 74.07231424 104.47824308 65.7059431 104.51171875 57.03125 C104.52858372 55.38357215 104.54673638 53.73590702 104.56611633 52.08825684 C104.61342538 47.77457659 104.64335777 43.46094795 104.66955566 39.14709473 C104.70472557 33.95893613 104.7616835 28.77097561 104.81494904 23.58297729 C104.89323888 15.72201073 104.94401334 7.86129946 105 0 C115.56 0 126.12 0 137 0 C137.0906531 10.6318648 137.16391835 21.26346958 137.20724869 31.89563465 C137.22805334 36.83348352 137.25623972 41.77105244 137.30175781 46.70874023 C137.34547105 51.48093576 137.36919057 56.25286335 137.37950897 61.02524376 C137.38685487 62.83877462 137.40119885 64.65229213 137.42292023 66.46570778 C137.56646466 78.95522222 137.08872323 90.02190311 128.81640625 100.16015625 C114.36427174 114.79876992 92.3278059 119.01654721 72.55883789 119.24121094 C50.71904332 119.29611162 26.93169214 117.5010652 10.125 101.75 C2.61322103 93.79397603 -0.16417394 85.65765288 -0.11352539 74.92675781 C-0.11374443 73.71156212 -0.11374443 73.71156212 -0.1139679 72.47181702 C-0.11327224 69.79889227 -0.10549606 67.12603755 -0.09765625 64.453125 C-0.09579084 62.59796181 -0.09436752 60.74279813 -0.09336853 58.88763428 C-0.08955305 54.00830726 -0.07973102 49.12901007 -0.06866455 44.24969482 C-0.05842961 39.2693319 -0.05386644 34.28896416 -0.04882812 29.30859375 C-0.03810789 19.53904729 -0.02051892 9.7695308 0 0 Z " fill="#000000" transform="translate(569,92)"/>
<path d="M0 0 C36.63 0 73.26 0 111 0 C111 8.58 111 17.16 111 26 C84.93 26 58.86 26 32 26 C32 32.27 32 38.54 32 45 C56.75 45 81.5 45 107 45 C107 53.25 107 61.5 107 70 C82.25 70 57.5 70 32 70 C32 85.18 32 100.36 32 116 C21.44 116 10.88 116 0 116 C0 77.72 0 39.44 0 0 Z " fill="#000000" transform="translate(1088,92)"/>
<path d="M0 0 C11.55 0 23.1 0 35 0 C38.3600611 6.84150795 41.71936169 13.68338003 45.0769043 20.52612305 C46.21385854 22.84273329 47.35121341 25.15914696 48.48901367 27.4753418 C54.86166096 40.44873378 61.20177345 53.43535666 67.40815735 66.48927307 C67.82349228 67.36220505 68.23882721 68.23513702 68.66674805 69.13452148 C69.25303482 70.36946854 69.25303482 70.36946854 69.85116577 71.62936401 C70.9647111 73.92718084 72.13160353 76.19109627 73.30786133 78.45727539 C75 82 75 82 75 85 C75.66 85 76.32 85 77 85 C77.23920166 84.19941162 77.47840332 83.39882324 77.72485352 82.57397461 C79.30484948 78.14556931 81.31850773 74.02621206 83.40234375 69.81640625 C83.83623413 68.93199356 84.27012451 68.04758087 84.71716309 67.1363678 C85.64273696 65.25061732 86.56997852 63.3656846 87.49874878 61.48150635 C89.90251155 56.60463905 92.29396609 51.72173698 94.6875 46.83984375 C95.15465927 45.88795166 95.62181854 44.93605957 96.10313416 43.95532227 C99.5831071 36.8618361 103.03337746 29.75526516 106.4375 22.625 C106.82993896 21.80459229 107.22237793 20.98418457 107.62670898 20.13891602 C110.81178191 13.45269423 113.89579665 6.72577392 117 0 C128.88 0 140.76 0 153 0 C151.34383864 4.96848409 149.41465012 9.20046284 146.9375 13.75 C141.94019619 23.07627519 137.21064025 32.52708267 132.5 42 C127.73619907 51.57313923 122.95260741 61.12303003 117.90209961 70.54907227 C115.08693037 75.84230389 112.39253324 81.1910914 109.72265625 86.55859375 C109.34112396 87.32519318 108.95959167 88.0917926 108.5664978 88.88162231 C106.63761611 92.76043576 104.71471021 96.64209366 102.79882812 100.52734375 C102.08603158 101.9648904 101.37314486 103.40239235 100.66015625 104.83984375 C100.33555923 105.50253769 100.01096222 106.16523163 99.67652893 106.8480072 C98.81479265 108.58081264 97.90927203 110.29165915 97 112 C96.60248535 112.79962158 96.2049707 113.59924316 95.79541016 114.4230957 C92.8303819 117.02727269 89.35814441 116.48801572 85.61328125 116.390625 C84.79627243 116.38496521 83.97926361 116.37930542 83.13749695 116.37347412 C80.52856797 116.35108697 77.92101364 116.30088846 75.3125 116.25 C73.54363963 116.22993792 71.77475773 116.21168664 70.00585938 116.1953125 C65.67004344 116.1512148 61.33525475 116.08217294 57 116 C56.73406036 115.46590012 56.46812073 114.93180023 56.19412231 114.3815155 C53.37286835 108.71652132 50.54856789 103.053053 47.72265625 97.39038086 C46.67470666 95.28951736 45.62748106 93.18829254 44.58105469 91.08666992 C39.1046258 80.08913878 33.58095731 69.127206 27.82342529 58.27397156 C22.738646 48.6622137 17.86160274 38.94558502 12.99169922 29.22363281 C11.34776676 25.94569802 9.69534843 22.67212066 8.04296875 19.3984375 C6.99427048 17.30755299 5.94607368 15.21641687 4.8984375 13.125 C4.40483734 12.15014648 3.91123718 11.17529297 3.40267944 10.17089844 C2.95445831 9.27145508 2.50623718 8.37201172 2.04443359 7.4453125 C1.64823822 6.65656738 1.25204285 5.86782227 0.84384155 5.05517578 C0 3 0 3 0 0 Z " fill="#000000" transform="translate(399,92)"/>
<path d="M0 0 C-1.37448867 3.63632623 -3.00434858 6.97064121 -4.90625 10.359375 C-5.47980225 11.38345459 -6.05335449 12.40753418 -6.64428711 13.46264648 C-7.25667236 14.54747314 -7.86905762 15.6322998 -8.5 16.75 C-9.45048218 18.44008179 -9.45048218 18.44008179 -10.42016602 20.16430664 C-14.25000564 26.95517743 -18.13335601 33.70984746 -22.1105957 40.4152832 C-25.85304663 46.72724525 -29.52403479 53.07941601 -33.1875 59.4375 C-33.82550537 60.54472412 -34.46351074 61.65194824 -35.12084961 62.79272461 C-36.42889477 65.06337068 -37.73675448 67.33412358 -39.04443359 69.60498047 C-42.19332054 75.0716998 -45.34683264 80.53574887 -48.5 86 C-49.7500235 88.16665311 -51.00002347 90.33331979 -52.25 92.5 C-54.75 96.83333333 -57.25 101.16666667 -59.75 105.5 C-60.36915283 106.5732251 -60.98830566 107.6464502 -61.6262207 108.75219727 C-62.8720577 110.91159395 -64.11798818 113.07093669 -65.36401367 115.23022461 C-68.55348953 120.75767597 -71.74116885 126.28615121 -74.92578125 131.81640625 C-78.04629967 137.23496277 -81.17384609 142.64941447 -84.3046875 148.06201172 C-85.9081049 150.84074516 -87.50183473 153.62482273 -89.09375 156.41015625 C-89.99967129 157.98196034 -90.90589721 159.5535889 -91.8125 161.125 C-92.21509033 161.83599854 -92.61768066 162.54699707 -93.0324707 163.27954102 C-93.96552841 164.88694033 -94.97453059 166.44992203 -96 168 C-96.66 168 -97.32 168 -98 168 C-107.13227636 128.0319402 -112.03074576 81.12986493 -91.22265625 43.8125 C-76.93210896 21.36845027 -55.89727819 8.38519805 -30.28173828 2.47265625 C-20.32073598 0.4092601 -10.16350428 -0.39512544 0 0 Z " fill="#7BC6FF" transform="translate(194,0)"/>
<path d="M0 0 C42.9 0 85.8 0 130 0 C130 8.58 130 17.16 130 26 C113.83 26 97.66 26 81 26 C81 55.7 81 85.4 81 116 C70.44 116 59.88 116 49 116 C49 86.3 49 56.6 49 26 C32.83 26 16.66 26 0 26 C0 17.42 0 8.84 0 0 Z " fill="#000000" transform="translate(872,92)"/>
<path d="M0 0 C4.85612361 -0.19875516 9.7098501 -0.34337321 14.5690918 -0.43945312 C16.21925111 -0.47952358 17.86912922 -0.53400048 19.51831055 -0.60351562 C33.16338686 -1.16398992 33.16338686 -1.16398992 37.49853516 1.58349609 C39.29946933 3.62455482 40.64231504 5.64565746 42 8 C42.8828868 9.13158954 43.78313886 10.24992304 44.703125 11.3515625 C45.55436967 12.44092561 46.40328828 13.53210991 47.25 14.625 C48.19784396 15.83990048 49.14576288 17.05474248 50.09375 18.26953125 C50.57199219 18.88393066 51.05023437 19.49833008 51.54296875 20.13134766 C53.93533653 23.19957537 56.34371673 26.25518319 58.75 29.3125 C62.85041008 34.52843617 66.93532012 39.75614677 71 45 C74.8199314 41.4457233 77.82051383 37.40863803 80.9375 33.25 C85.99471552 26.56273103 91.17690624 19.99997219 96.50952148 13.53027344 C97.01040283 12.92086914 97.51128418 12.31146484 98.02734375 11.68359375 C98.78966309 10.79293213 98.78966309 10.79293213 99.56738281 9.88427734 C101.07832972 8.02859721 101.07832972 8.02859721 102.06542969 5.77587891 C103.4783705 3.09626567 104.48057763 1.72261955 107 0 C113.14900851 -1.00889794 119.16901957 -0.75277 125.375 -0.5 C127.08194827 -0.45984413 128.78898679 -0.423347 130.49609375 -0.390625 C134.66629792 -0.30273436 138.83215787 -0.16486216 143 0 C140.61846103 4.08503978 137.90652142 7.62517124 134.8125 11.1875 C133.82056772 12.34415513 132.82968987 13.50171531 131.83984375 14.66015625 C131.35499512 15.22750488 130.87014648 15.79485352 130.37060547 16.37939453 C127.8258876 19.38827184 125.3868871 22.47998098 122.9375 25.56640625 C116.46201866 33.69992415 109.794521 41.68281958 103.18237305 49.70532227 C98.96523509 54.82312986 94.76296415 59.95266508 90.57421875 65.09375 C89 67 89 67 88 68 C87.8775669 69.50316769 87.82223715 71.01188167 87.79467773 72.51977539 C87.77473251 73.48069595 87.75478729 74.44161652 87.73423767 75.43165588 C87.71752518 76.476436 87.70081268 77.52121613 87.68359375 78.59765625 C87.6524221 80.19364906 87.6524221 80.19364906 87.62062073 81.82188416 C87.55500746 85.2353544 87.49618577 88.64890429 87.4375 92.0625 C87.39432597 94.37045109 87.35071206 96.678394 87.30664062 98.98632812 C87.1984828 104.6574715 87.09949699 110.32867149 87 116 C76.44 116 65.88 116 55 116 C55.05542969 112.68582031 55.11085938 109.37164062 55.16796875 105.95703125 C55.18420152 102.70662348 55.18148141 99.45673651 55.17700195 96.20629883 C55.18392911 93.96689264 55.21021309 91.72745182 55.25708008 89.48852539 C55.90276774 73.68509905 55.90276774 73.68509905 48.68359375 60.26953125 C46.8437947 58.43971147 44.93739511 56.7305801 43 55 C41.59107856 53.31953335 40.20889296 51.61561981 38.875 49.875 C34.64022069 44.53624563 30.32228071 39.26801051 26 34 C23.75073546 31.25176517 21.50232034 28.50283687 19.25390625 25.75390625 C17.74201773 23.90662478 16.22898251 22.06028125 14.71484375 20.21484375 C12.47233878 17.47998777 10.23614101 14.74006011 8 12 C7.2265625 11.0615625 6.453125 10.123125 5.65625 9.15625 C4.9240625 8.2590625 4.191875 7.361875 3.4375 6.4375 C2.77621094 5.63183594 2.11492187 4.82617188 1.43359375 3.99609375 C0 2 0 2 0 0 Z " fill="#000000" transform="translate(1210,92)"/>
<path d="M0 0 C10.56 0 21.12 0 32 0 C32 38.28 32 76.56 32 116 C21.44 116 10.88 116 0 116 C0 77.72 0 39.44 0 0 Z " fill="#000000" transform="translate(1021,92)"/>
</svg>
